<svg width="680" height="620" viewBox="0 0 680 620" xmlns="http://www.w3.org/2000/svg" font-family="Helvetica, Arial, sans-serif">
<defs>
<marker id="arrow" viewBox="0 0 10 10" refX="8" refY="5" markerWidth="6" markerHeight="6" orient="auto-start-reverse">
<path d="M2 1L8 5L2 9" fill="none" stroke="#5F5E5A" stroke-width="1.5" stroke-linecap="round" stroke-linejoin="round"/>
</marker>
</defs>

<rect width="680" height="620" fill="#1a1a1a"/>

<rect x="20" y="30" width="280" height="160" rx="16" fill="#2C2C2A" stroke="#444441" stroke-width="0.5"/>
<text x="160" y="52" text-anchor="middle" font-size="14" font-weight="500" fill="#F1EFE8">Testing &amp; CI/CD</text>

<rect x="35" y="90" width="120" height="44" rx="6" fill="#444441" stroke="#5F5E5A" stroke-width="0.5"/>
<text x="95" y="104" text-anchor="middle" font-size="12" fill="#D3D1C7">.github/workflows/</text>
<text x="95" y="120" text-anchor="middle" font-size="12" fill="#D3D1C7">CI pipeline</text>

<rect x="175" y="65" width="110" height="44" rx="6" fill="#085041" stroke="#0F6E56" stroke-width="0.5"/>
<text x="230" y="79" text-anchor="middle" font-size="12" fill="#9FE1CB">tests/: pytest,</text>
<text x="230" y="95" text-anchor="middle" font-size="12" fill="#9FE1CB">mocks &amp; integration</text>

<rect x="175" y="140" width="110" height="34" rx="6" fill="#444441" stroke="#5F5E5A" stroke-width="0.5"/>
<text x="230" y="161" text-anchor="middle" font-size="12" fill="#D3D1C7">Docker Compose stack</text>

<path d="M155 100L175 87" stroke="#5F5E5A" stroke-width="1.5" fill="none" marker-end="url(#arrow)"/>
<path d="M155 118L175 157" stroke="#5F5E5A" stroke-width="1.5" fill="none" marker-end="url(#arrow)"/>

<ellipse cx="500" cy="55" rx="65" ry="18" fill="#2C2C2A" stroke="#444441" stroke-width="0.5"/>
<text x="500" y="59" text-anchor="middle" font-size="12" fill="#D3D1C7">Client / browser</text>

<ellipse cx="610" cy="55" rx="55" ry="18" fill="#2C2C2A" stroke="#444441" stroke-width="0.5"/>
<text x="610" y="59" text-anchor="middle" font-size="12" fill="#D3D1C7">Administrator</text>

<text x="500" y="98" text-anchor="middle" font-size="12" fill="#888780">HTTP / Gunicorn</text>
<line x1="500" y1="73" x2="500" y2="170" stroke="#5F5E5A" stroke-width="1.5" marker-end="url(#arrow)"/>
<text x="610" y="98" text-anchor="middle" font-size="12" fill="#888780">Command line</text>
<line x1="610" y1="73" x2="610" y2="170" stroke="#5F5E5A" stroke-width="1.5" marker-end="url(#arrow)"/>

<rect x="410" y="180" width="250" height="330" rx="16" fill="#2C2C2A" stroke="#444441" stroke-width="0.5"/>
<text x="535" y="202" text-anchor="middle" font-size="14" font-weight="500" fill="#F1EFE8">Shared modules &amp; business logic</text>

<rect x="425" y="220" width="90" height="34" rx="6" fill="#0C447C" stroke="#185FA5" stroke-width="0.5"/>
<text x="470" y="241" text-anchor="middle" font-size="12" fill="#B5D4F4">WEB / Flask app</text>

<rect x="565" y="220" width="80" height="34" rx="6" fill="#0C447C" stroke="#185FA5" stroke-width="0.5"/>
<text x="605" y="241" text-anchor="middle" font-size="12" fill="#B5D4F4">CLI / main.py</text>

<rect x="425" y="285" width="90" height="48" rx="6" fill="#3C3489" stroke="#534AB7" stroke-width="0.5"/>
<text x="470" y="303" text-anchor="middle" font-size="12" fill="#CECBF6">models.py:</text>
<text x="470" y="319" text-anchor="middle" font-size="12" fill="#CECBF6">SQLAlchemy ORM</text>

<rect x="525" y="285" width="100" height="48" rx="6" fill="#3C3489" stroke="#534AB7" stroke-width="0.5"/>
<text x="575" y="303" text-anchor="middle" font-size="12" fill="#CECBF6">schemas.py:</text>
<text x="575" y="319" text-anchor="middle" font-size="12" fill="#CECBF6">Marshmallow validation</text>

<rect x="425" y="350" width="200" height="56" rx="6" fill="#712B13" stroke="#993C1D" stroke-width="0.5"/>
<text x="525" y="368" text-anchor="middle" font-size="12" fill="#F0997B">services.py: Weather,</text>
<text x="525" y="384" text-anchor="middle" font-size="12" fill="#F0997B">geolocation &amp; rate limiting</text>

<line x1="470" y1="254" x2="470" y2="283" stroke="#5F5E5A" stroke-width="1.5" marker-end="url(#arrow)"/>
<path d="M500 254L575 283" stroke="#5F5E5A" stroke-width="1.5" fill="none" marker-end="url(#arrow)"/>
<path d="M470 254L500 348" stroke="#5F5E5A" stroke-width="1.5" fill="none" marker-end="url(#arrow)"/>
<path d="M605 254L560 348" stroke="#5F5E5A" stroke-width="1.5" fill="none" marker-end="url(#arrow)"/>

<rect x="425" y="440" width="90" height="30" rx="6" fill="#444441" stroke="#5F5E5A" stroke-width="0.5"/>
<text x="470" y="459" text-anchor="middle" font-size="12" fill="#D3D1C7">WeatherAPI.com</text>

<rect x="545" y="440" width="90" height="30" rx="6" fill="#444441" stroke="#5F5E5A" stroke-width="0.5"/>
<text x="590" y="459" text-anchor="middle" font-size="12" fill="#D3D1C7">ip-api.com / ipinfo.io</text>

<line x1="490" y1="406" x2="470" y2="438" stroke="#5F5E5A" stroke-width="1.5" marker-end="url(#arrow)"/>
<line x1="560" y1="406" x2="590" y2="438" stroke="#5F5E5A" stroke-width="1.5" marker-end="url(#arrow)"/>

<rect x="60" y="360" width="180" height="150" rx="16" fill="#2C2C2A" stroke="#444441" stroke-width="0.5"/>
<text x="150" y="382" text-anchor="middle" font-size="14" font-weight="500" fill="#F1EFE8">Data management</text>

<rect x="80" y="400" width="140" height="34" rx="6" fill="#3C3489" stroke="#534AB7" stroke-width="0.5"/>
<text x="150" y="421" text-anchor="middle" font-size="12" fill="#CECBF6">alembic/: DB migrations</text>

<ellipse cx="150" cy="475" rx="60" ry="14" fill="#72243E" stroke="#993556" stroke-width="0.5"/>
<rect x="90" y="461" width="120" height="30" fill="#72243E" stroke="none"/>
<ellipse cx="150" cy="491" rx="60" ry="14" fill="#72243E" stroke="#993556" stroke-width="0.5"/>
<text x="150" y="480" text-anchor="middle" font-size="12" fill="#ED93B1">Postgres: schema</text>

<path d="M425 300L240 415" stroke="#5F5E5A" stroke-width="1.5" fill="none" marker-end="url(#arrow)"/>
</svg>
